<svg xmlns="http://www.w3.org/2000/svg" width="56.597" height="42.39" viewBox="0 0 56.597 42.39">
  <g id="quote" transform="translate(-8952.969 17733.001)">
    <path id="Path_13505" data-name="Path 13505" d="M396.293,93.6a12.824,12.824,0,1,0-17.556,13.284l-7.2,14.747a1.359,1.359,0,0,0,1.17,1.931h4.916a1.25,1.25,0,0,0,1.053-.527l15.449-20.833a13.212,13.212,0,0,0,2.166-8.6Z" transform="translate(8612.71 -17814.676)" fill="none" stroke="#000" stroke-width="1"/>
    <path id="Path_13506" data-name="Path 13506" d="M97.459,82.191a12.823,12.823,0,0,0-5.442,24.7l-7.2,14.747a1.359,1.359,0,0,0,1.17,1.931h4.916a1.25,1.25,0,0,0,1.053-.527l15.449-20.833a12.6,12.6,0,0,0,2.107-8.544,12.844,12.844,0,0,0-12.055-11.47Z" transform="translate(8869.469 -17814.676)" fill="none" stroke="#000" stroke-width="1"/>
  </g>
</svg>
