<svg xmlns="http://www.w3.org/2000/svg" width="675.86" height="234.014" viewBox="0 0 675.86 234.014">
  <g id="hero-bg-shape" transform="translate(-1445.986 -1285.612)">
    <path id="Path_13975" data-name="Path 13975" d="M3284.488,1511.6a1.36,1.36,0,0,0,.585,2.487,1.289,1.289,0,0,0,.9-.217c.572-.367,1.143-.734,1.714-1.115s1.129-.761,1.7-1.142l.558-.394.584-.395a1.381,1.381,0,0,0,.544-1.455,1.367,1.367,0,0,0-2.095-.788c-1.116.775-2.231,1.537-3.36,2.284Zm103.327-129.832a1.361,1.361,0,0,0-2.258-1.32,1.461,1.461,0,0,0-.381.653c-.422,1.726-.925,3.453-1.469,5.153a1.36,1.36,0,0,0,1.918,1.618,1.334,1.334,0,0,0,.68-.8c.558-1.754,1.075-3.522,1.51-5.3Zm-4.3,13.079a1.362,1.362,0,1,0-2.531-1.006c-.653,1.658-1.346,3.318-2.068,4.962a1.36,1.36,0,0,0,1.728,1.822,1.408,1.408,0,0,0,.762-.72c.735-1.673,1.429-3.358,2.109-5.058Zm-5.591,12.509a1.36,1.36,0,0,0-2.435-1.21c-.8,1.618-1.619,3.222-2.463,4.813a1.36,1.36,0,1,0,2.408,1.265c.844-1.6,1.674-3.236,2.49-4.867Zm-6.436,12.06a1.361,1.361,0,0,0-1.687-1.931,1.3,1.3,0,0,0-.68.585c-.9,1.563-1.8,3.127-2.735,4.677a1.364,1.364,0,0,0,2.34,1.4c.938-1.564,1.85-3.141,2.761-4.732Zm-7.075,11.693a1.36,1.36,0,1,0-2.3-1.455c-.966,1.509-1.946,3.032-2.953,4.528a1.363,1.363,0,0,0,1.5,2.066,1.388,1.388,0,0,0,.775-.558c1.006-1.509,2-3.046,2.979-4.582Zm-7.6,11.353a1.362,1.362,0,1,0-2.231-1.563q-1.551,2.2-3.142,4.405a1.352,1.352,0,0,0,1.428,2.107,1.252,1.252,0,0,0,.762-.516q1.613-2.2,3.184-4.433Zm-8.081,11a1.363,1.363,0,0,0-2.164-1.658c-1.1,1.441-2.2,2.855-3.333,4.282a1.361,1.361,0,0,0,2.136,1.686c1.129-1.427,2.245-2.869,3.361-4.31Zm-8.531,10.66a1.361,1.361,0,0,0-1.36-2.189,1.338,1.338,0,0,0-.735.449q-1.735,2.08-3.5,4.133a1.351,1.351,0,0,0,1.388,2.189,1.31,1.31,0,0,0,.667-.408c1.184-1.386,2.367-2.773,3.537-4.174Zm-8.979,10.305a1.362,1.362,0,0,0-2.013-1.835q-1.816,2-3.673,3.971a1.351,1.351,0,0,0,1.007,2.284,1.3,1.3,0,0,0,.966-.422q1.876-1.978,3.714-4Zm-9.428,9.885a1.361,1.361,0,0,0-1.918-1.931c-1.279,1.279-2.572,2.543-3.865,3.794a1.361,1.361,0,1,0,1.877,1.971c1.32-1.264,2.612-2.542,3.9-3.834Zm-9.9,9.423a1.353,1.353,0,1,0-1.81-2.013c-1.346,1.21-2.693,2.393-4.068,3.576a1.361,1.361,0,0,0,.776,2.38,1.338,1.338,0,0,0,1.006-.313c1.388-1.2,2.748-2.406,4.1-3.63Zm-10.408,8.879a1.358,1.358,0,0,0-.884-2.42,1.326,1.326,0,0,0-.8.3c-1.415,1.128-2.83,2.243-4.259,3.33a1.355,1.355,0,1,0,1.633,2.162c1.456-1.1,2.9-2.229,4.313-3.371Z" transform="translate(-1266.009 -94.46)" fill="#7a75ff"/>
    <g id="Group_3769" data-name="Group 3769" transform="translate(1814.937 1432.481)">
      <path id="Path_13976" data-name="Path 13976" d="M2842.477,1851.054a1.734,1.734,0,0,1-1.71-1.295,1.654,1.654,0,0,1,1.333-1.969,613.7,613.7,0,0,0,176.7-66.632,1.815,1.815,0,0,1,2.4.568,1.6,1.6,0,0,1-.6,2.265,617.347,617.347,0,0,1-177.742,67.025A1.874,1.874,0,0,1,2842.477,1851.054Z" transform="translate(-2840.725 -1780.923)" fill="#e9e8ff"/>
    </g>
    <g id="Group_3770" data-name="Group 3770" transform="translate(1450.908 1343.778)">
      <path id="Path_13977" data-name="Path 13977" d="M2023.078,1544.1c-58.634,0-115.87-7.269-167.266-21.352-29.422-8.062-56.164-18.165-79.483-30.029-23.535-11.974-43.141-25.518-58.273-40.258-.333-.325-.06-.718.61-.88a2.2,2.2,0,0,1,1.816.3c62.006,60.4,196.876,96.621,335.6,90.14.749-.035,1.407.229,1.478.59s-.473.682-1.218.716Q2039.672,1544.1,2023.078,1544.1Z" transform="translate(-1722.315 -1385.923)" fill="#e9e8ff" stroke="rgba(0,0,0,0)" stroke-width="1"/>
    </g>
    <g id="Group_3771" data-name="Group 3771" transform="matrix(0.999, 0.035, -0.035, 0.999, 1766.664, 1493.276)">
      <path id="Path_13978" data-name="Path 13978" d="M2594.4,1964.663a.906.906,0,0,1-.886-1.095l1-4.7-18.561,2.3a.905.905,0,0,1-.222-1.8l19.823-2.454a.905.905,0,0,1,1,1.088l-.7,3.3,12.855-11.137-15.19-7.674,1.5,3.066a.906.906,0,0,1-.7,1.3l-4.493.552a.906.906,0,0,1-.221-1.8l3.233-.4-2.124-4.346a.905.905,0,0,1,1.221-1.206l18.8,9.5a.905.905,0,0,1,.185,1.492l-15.918,13.79A.906.906,0,0,1,2594.4,1964.663Z" transform="translate(-2574.94 -1939.564)" fill="#e9e8ff"/>
    </g>
    <g id="Group_3775" data-name="Group 3775" transform="translate(1997.861 1420.605)">
      <path id="Path_13982" data-name="Path 13982" d="M3235.461,1760.856h0a6.178,6.178,0,1,1,4.875-2.383A6.1,6.1,0,0,1,3235.461,1760.856Zm.006-9.627a3.448,3.448,0,0,0-2.121,6.178,3.45,3.45,0,0,0,4.844-.6,3.449,3.449,0,0,0,.7-2.554,3.459,3.459,0,0,0-3.427-3.021Z" transform="translate(-3229.284 -1748.51)" fill="#7a75ff"/>
    </g>
  </g>
</svg>
